# xmcd
# Track frame offsets:
# 150
# 30180
# 59660
# 75907
# 92957
# 115275
# 134160
# 156634
# 175340
# 205327
# 222542
# 238292
# 260857
# 283625
# 301242
#
# Disc length: 4315 seconds
# Revision: 1
# Processed by: cddbd v1.5.2PL0 Copyright (c) Steve Scherf et al.
# Submitted via: VisiTrax 2.11.3.279 - For more info visit www.synapsa.com
#
DISCID=ea10d90f
DTITLE=Various Artist - Dame Mas Fiesta Latina
DYEAR=1991
DGENRE=Salsa
TTITLE0=Thalia - Piel morena
TTITLE1=Ricardo Montaner - La Tostaita de Maria
TTITLE2=Negritude Junior - Tic Tic Tac
TTITLE3=Chico and The Cypises - Marina
TTITLE4=Fernanda Abreu - O' stado Dais Cosas
TTITLE5=Angel Masso - Cuba
TTITLE6=Proyeto Uno - El Tiburo
TTITLE7=Yarumba - Dame Un Beso
TTITLE8=Ricardo Montaner - Cachita
TTITLE9=Peyrano - Hay Que Venir al Sur
TTITLE10=Daniela Romo - Que Vengan Los Bomberos
TTITLE11=Os Palaramas do Susesso - Alagados
TTITLE12=Live 2 Love - Estrella Gemela
TTITLE13=Bechamel - Nene
TTITLE14=Los Pericos - Rarate Y Mira Rumaway (Live MTV)
EXTD=YEAR: 1991
EXTT0=
EXTT1=
EXTT2=
EXTT3=
EXTT4=
EXTT5=
EXTT6=
EXTT7=
EXTT8=
EXTT9=
EXTT10=
EXTT11=
EXTT12=
EXTT13=
EXTT14=
PLAYORDER=
